<?xml version="1.0" encoding="utf-8"?>
<!-- Generator: Adobe Illustrator 22.0.0, SVG Export Plug-In . SVG Version: 6.00 Build 0)  -->
<svg version="1.1" id="图层_1" xmlns="http://www.w3.org/2000/svg" xmlns:xlink="http://www.w3.org/1999/xlink" x="0px" y="0px"
	 viewBox="0 0 200 200" style="enable-background:new 0 0 200 200;" xml:space="preserve">
<style type="text/css">
	.st0{fill:#FFFFFF;}
</style>
<path class="st0" d="M173,93.9c-4.4,2.5-10.8,3.7-16.1,4.3c8.4-7.1,16.6-15.3,19.9-25.5c4.5-13.9,4.6-26.8,0.4-40.5
	c-0.4-1.2-1.4-2.1-2.7-2.3c-1.2-0.2-2.4,0.3-3.1,1.4c-11.1,15.8-25.8,25.9-41.8,28.9c4.8-9.6,10.1-20.5,8.9-31.9
	c-0.1-1.3-1-2.4-2.2-2.8c-0.3-0.1-0.7-0.2-1-0.2c-0.9,0-1.7,0.4-2.3,1c-17,17.3-30.6,21-47,21.3c-18.1,0.3-35.4,8.7-47.4,22.9
	c-11.9,14.1-17.2,32.3-14.5,50c4.4,28.4,25.6,49.6,54,54.1c3.6,0.6,7.1,0.8,10.6,0.8c23.3,0,44.3-12.3,56.2-33.8
	c1.4-2.4,3.6-4.8,6.1-6.6c11.5-7.9,19.9-18.1,24.8-30.4c0.7-1.7,1.2-3.8,1.6-5.6l0.3-1.4c0.1-0.2,0.1-0.5,0.1-0.8
	c0-1.1-0.5-2-1.3-2.6c-0.6-0.4-1.3-0.7-2-0.7C174,93.5,173.4,93.7,173,93.9L173,93.9z M30.7,115.6c2.7,8.6,19.6,11.5,19.6,11.5
	C36.2,142.2,30.7,115.6,30.7,115.6z M71.4,127.1c0,0,34.4-4,48.1-15.8C119.5,111.3,99.5,156.8,71.4,127.1z"/>
</svg>
